<?xml version="1.0" encoding="UTF-8"?>
<!DOCTYPE svg PUBLIC "-//W3C//DTD SVG 1.1//EN" "http://www.w3.org/Graphics/SVG/1.1/DTD/svg11.dtd">
<!-- Creator: CorelDRAW X8 -->
<svg xmlns="http://www.w3.org/2000/svg" xml:space="preserve" width="48mm" height="42mm" version="1.1" style="shape-rendering:geometricPrecision; text-rendering:geometricPrecision; image-rendering:optimizeQuality; fill-rule:evenodd; clip-rule:evenodd"
viewBox="0 0 4800 4200"
 xmlns:xlink="http://www.w3.org/1999/xlink">
 <defs>
  <style type="text/css">
   <![CDATA[
    .fil0 {fill:white}
   ]]>
  </style>
 </defs>
 <g id="Warstwa_x0020_1">
  <metadata id="CorelCorpID_0Corel-Layer"/>
  <path class="fil0" d="M4084 1527c5,-12 11,-25 19,-38 39,-64 31,-123 68,-171 89,-114 57,-167 6,-286 -24,-56 -33,-69 -81,-86 -125,-43 -80,-144 -342,-210 -26,-7 -29,-5 -67,-13 -103,-21 -159,141 -271,47 -73,-62 2,-64 -45,-129 -29,-38 -33,-33 -60,-29 -27,5 -41,7 -47,1 -36,-41 168,-134 170,-176 2,-48 3,-90 2,-111 -5,-94 -90,-198 -157,-199 -88,-2 -118,-23 -118,-23 -84,-43 -163,-70 -256,-80 -150,-15 -211,36 -228,40 -39,9 -40,-18 -93,49 -60,76 -75,2 -142,55 -12,9 -49,80 -78,65 -7,-3 -11,-26 -45,-27 -48,-3 -98,149 -189,135 -92,-14 -7,-82 -25,-100l-66 -4 -88 -31c-77,-38 -58,-92 -152,-13 -78,65 -115,2 -250,1 -32,0 -43,2 -59,1 -42,0 -59,-15 -81,-18 -93,-12 -199,203 -285,264 -91,66 -107,71 -107,143 2,104 -44,169 -25,212 7,14 37,178 89,308 67,166 120,106 80,251 -15,53 -70,84 -123,70 -54,-15 -85,-71 -70,-124 -4,-8 -2,-6 -8,-12 -48,-43 -44,-86 -99,-74 -32,6 -51,-16 -122,-2 -25,4 -24,8 -79,28 -35,12 -44,16 -64,48 -48,74 -35,38 -87,141 -22,42 -37,73 -48,97l727 0c18,-33 57,-67 79,-114 15,-33 29,-79 44,-99l48 23 -94 190 62 0 81 -169 42 19 -76 150 53 0c19,-50 42,-92 68,-130l4 2 -4 -3c112,-160 428,-368 593,-429 154,-57 398,-72 561,-21 55,17 109,43 175,86l-24 81c-62,-27 -115,-80 -240,-110 -155,-37 -356,1 -509,71 -162,74 -456,274 -534,453l60 0c55,-112 136,-181 240,-255 216,-154 496,-301 763,-199 60,23 155,54 205,96l-27 73c-111,-96 -270,-119 -409,-123 -187,-7 -342,85 -484,208 -82,70 -135,133 -175,200l80 0c201,-268 602,-452 922,-257l60 46c94,66 181,139 247,211l91 0c-72,-98 -197,-184 -298,-263l28 -71c137,86 248,195 339,334l98 0c-98,-197 -248,-284 -412,-387l30 -76 126 85c158,109 274,226 346,378l52 0c-92,-234 -214,-318 -423,-457 -34,-23 -64,-42 -83,-56l32 -77c105,64 345,295 423,387 59,69 93,123 124,203l54 0c-86,-217 -267,-379 -443,-528l-139 -110 16 -41c149,116 245,162 402,327 107,112 164,208 216,352l72 0c-106,-314 -332,-518 -620,-710 -16,-11 -34,-23 -44,-31l24 -59c75,38 284,216 343,267 194,167 308,315 364,533l63 0c-43,-186 -107,-286 -247,-431 -121,-126 -272,-250 -398,-338 -39,-27 -81,-56 -108,-80l31 -68c86,41 254,225 326,301 44,47 115,-5 220,164 91,147 218,289 269,452l211 0zm32 -1220l8 -72 -43 3c-37,3 -75,4 -115,4 -3,-49 -14,-100 -33,-153l-24 -67 -37 21c-58,34 -121,65 -194,95 -57,23 -105,66 -136,119 -32,55 -44,118 -35,181l26 174 80 25c70,22 135,30 193,25 55,-4 105,-21 148,-49 90,-59 148,-168 162,-306zm-3797 505l-17 -70 42 -2c37,-2 76,-6 116,-12 -4,-49 0,-101 11,-155l15 -71 40 17c62,26 129,48 204,68 60,15 114,51 151,100 40,50 60,111 59,175l-3 176 -75 35c-67,31 -130,48 -189,51 -55,2 -107,-7 -153,-30 -97,-46 -168,-146 -201,-282zm3985 2663l-4 72 -41 -10c-36,-8 -74,-16 -114,-22 -10,48 -28,97 -55,146l-35 63 -32 -26c-53,-43 -111,-83 -178,-123 -53,-32 -94,-82 -116,-139 -23,-60 -25,-124 -6,-185l52 -167 82 -13c73,-11 138,-9 195,5 54,13 101,37 139,71 79,72 120,189 113,328zm-3501 443l0 72 42 -8c36,-7 75,-12 114,-16 8,48 24,98 49,148l31 65 34 -25c54,-40 114,-77 183,-114 54,-30 98,-77 123,-134 26,-58 31,-122 15,-184l-44 -170 -82 -16c-71,-14 -137,-16 -194,-5 -55,11 -103,32 -142,65 -83,68 -129,182 -129,322zm-698 -1782c10,14 20,26 29,37 10,10 20,19 30,27 10,7 21,12 33,15 13,4 28,6 44,6 7,0 15,-1 22,-2 7,-1 14,-3 21,-5 6,-3 12,-6 18,-9 5,-3 10,-7 14,-11 3,-4 6,-8 8,-13 2,-4 3,-9 3,-15 0,-10 -2,-18 -7,-26 -4,-7 -10,-14 -18,-20 -10,-6 -21,-11 -35,-16 -14,-5 -30,-9 -48,-13l0 0c-25,-5 -47,-12 -67,-21 -20,-9 -37,-20 -53,-33 -31,-26 -46,-64 -46,-114 0,-16 2,-31 6,-45 5,-14 12,-27 21,-39 17,-23 41,-41 69,-54 29,-12 60,-18 92,-18 21,0 41,2 60,6 18,4 35,10 51,19 16,8 30,18 42,30 12,12 23,26 32,41l5 9 -75 74 -9 -15c-6,-10 -12,-19 -20,-27 -8,-9 -16,-16 -25,-22 -9,-6 -19,-11 -29,-14 -10,-3 -22,-4 -34,-4 -12,0 -23,1 -33,4 -10,3 -19,7 -27,12 -7,5 -12,11 -16,18 -4,6 -5,14 -5,23 0,10 2,19 5,26 4,7 10,12 17,17 9,5 19,10 31,14 12,4 26,8 41,11 30,6 58,16 85,28 13,7 26,14 37,23 11,8 21,17 30,28 9,11 16,23 21,36 4,13 7,27 7,42 0,52 -18,94 -54,126 -18,15 -40,27 -64,35 -24,7 -51,11 -81,11 -21,0 -41,-2 -59,-6 -19,-4 -37,-10 -55,-19 -17,-8 -33,-19 -48,-32 -15,-14 -29,-30 -42,-48l-5 -8 71 -83 10 14zm923 -217l-132 392 -70 0 -89 -202 -82 202 -70 0 -139 -409 104 -1 78 241 82 -180 62 0 80 177 78 -237 104 0 -6 17zm96 -74c-10,0 -19,-1 -27,-4 -8,-3 -15,-7 -21,-13 -5,-6 -9,-13 -12,-20 -2,-7 -4,-15 -4,-24 0,-15 6,-29 16,-41 6,-6 13,-11 21,-15 8,-3 17,-4 27,-4 10,0 19,1 26,4 9,3 16,7 21,13 6,6 10,12 13,20 2,7 3,15 3,23 0,16 -5,30 -15,42 -6,6 -13,11 -21,14 -8,3 -17,5 -27,5zm39 466l-89 0 0 -409 102 0 0 409 -13 0zm473 -396l0 396 -103 0 0 -39c-9,8 -19,15 -31,23 -13,8 -26,13 -41,17 -14,4 -29,6 -46,6 -17,0 -33,-2 -49,-7 -16,-5 -31,-11 -45,-21 -15,-9 -28,-20 -39,-32 -11,-13 -21,-27 -29,-43 -8,-16 -15,-34 -19,-52 -4,-18 -6,-38 -6,-58 0,-20 2,-40 6,-58 5,-18 11,-35 20,-51 8,-16 19,-31 30,-43 12,-13 26,-23 41,-32 15,-9 31,-16 49,-21 17,-4 35,-6 54,-6 29,0 55,6 77,19 10,6 20,13 28,20l0 -31 103 0 0 13zm-203 307c11,0 20,-1 29,-3 9,-3 17,-7 25,-12 8,-5 15,-11 21,-17 6,-7 11,-15 15,-24 5,-9 8,-18 10,-28 2,-11 3,-21 3,-33 0,-11 -1,-22 -3,-32 -2,-10 -5,-19 -10,-28 -4,-8 -9,-16 -15,-23 -6,-7 -13,-13 -21,-18 -8,-5 -16,-8 -25,-11 -9,-2 -18,-4 -29,-4 -20,0 -37,5 -53,15 -7,5 -14,11 -20,17 -6,7 -12,15 -16,24 -4,8 -7,18 -10,28 -2,10 -3,21 -3,32 0,12 1,22 3,33 3,10 6,19 10,28 5,9 10,17 16,24 6,6 13,12 20,17 8,5 16,9 25,12 9,2 18,3 28,3zm407 89l-89 0 0 -310 -79 0 0 -99 79 0 0 -98 102 0 0 98 89 0 0 99 -89 0 0 310 -13 0zm490 -9l-45 -118 -195 0 -48 127 -109 0c70,-179 139,-358 208,-537l98 0c69,179 138,358 207,537l-113 0 -3 -9zm-169 -305l-32 85 118 0 -33 -87c-4,-10 -7,-19 -10,-27 -3,-8 -6,-18 -10,-29l-6 -21 -7 23c-4,11 -7,21 -10,29 -4,10 -7,19 -10,27zm313 300l0 -552 101 0 0 309 154 -152 140 0 -194 182 195 227 -131 0 -137 -159 -27 26 0 133 -101 0 0 -14zm770 -382l0 396 -102 0 0 -39c-9,8 -20,15 -32,23 -12,8 -26,13 -40,17 -15,4 -30,6 -46,6 -17,0 -34,-2 -50,-7 -16,-5 -31,-11 -45,-21 -14,-9 -27,-20 -38,-32 -12,-13 -21,-27 -30,-43 -8,-16 -14,-34 -18,-52 -4,-18 -6,-38 -6,-58 0,-20 2,-40 6,-58 4,-18 11,-35 19,-51 9,-16 19,-31 31,-43 12,-13 25,-23 40,-32 15,-9 32,-16 49,-21 17,-4 35,-6 54,-6 29,0 55,6 77,19 11,6 20,13 29,20l0 -31 102 0 0 13zm-203 307c11,0 21,-1 30,-3 9,-3 17,-7 24,-12 8,-5 15,-11 21,-17 6,-7 11,-15 16,-24 4,-9 7,-18 9,-28 3,-11 4,-21 4,-33 0,-11 -1,-22 -3,-32 -3,-10 -6,-19 -10,-28 -5,-8 -10,-16 -16,-23 -6,-7 -13,-13 -21,-18 -7,-5 -15,-8 -24,-11 -9,-2 -19,-4 -30,-4 -19,0 -37,5 -52,15 -8,5 -15,11 -21,18 -6,6 -11,14 -15,23 -5,8 -8,18 -10,28 -2,10 -3,21 -3,32 0,12 1,22 3,33 2,10 5,19 10,28 4,9 9,17 15,24 6,6 13,12 21,17 7,5 16,9 24,12 9,2 18,3 28,3zm346 -116c0,23 5,43 15,61 5,9 11,16 18,23 7,7 15,13 23,19 8,5 17,8 26,11 9,3 18,4 27,4 11,0 21,-2 30,-4 10,-3 18,-7 26,-13 9,-6 16,-12 23,-18 7,-6 13,-13 18,-19l10 -12 58 71 -5 8c-10,15 -24,28 -41,40 -9,6 -18,12 -28,17 -9,5 -20,9 -30,13 -11,3 -23,6 -34,8 -11,2 -23,3 -35,3 -18,0 -36,-2 -53,-7 -17,-5 -33,-12 -49,-21 -15,-10 -28,-21 -40,-33 -12,-13 -22,-28 -31,-44 -8,-16 -15,-33 -19,-51 -5,-18 -7,-37 -7,-56 0,-40 9,-76 26,-108 9,-16 19,-30 31,-43 12,-13 25,-24 40,-33 16,-10 32,-17 49,-21 17,-5 35,-7 53,-7 19,0 37,2 53,5 17,4 33,10 48,18 15,7 28,16 39,26 11,10 21,22 28,34l5 8 -59 72 -10 -14c-5,-8 -11,-15 -18,-21 -7,-7 -15,-13 -25,-18 -9,-5 -19,-10 -28,-12 -8,-3 -17,-4 -26,-4 -10,0 -20,1 -29,4 -9,2 -17,6 -26,11 -8,5 -15,11 -22,18 -6,7 -12,15 -17,24 -4,8 -8,18 -10,28 -3,10 -4,21 -4,33zm416 209c0,14 -1,27 -5,39 -3,13 -8,24 -14,35 -6,10 -14,20 -23,28 -8,8 -18,15 -29,20 -22,12 -46,17 -73,17l-8 0 -42 -84 21 0c14,0 25,-1 34,-5 9,-3 16,-7 21,-13 5,-7 9,-14 12,-23 3,-10 5,-20 5,-32l0 -395 101 0 0 413zm-49 -474c-10,0 -19,-2 -26,-4 -9,-3 -16,-8 -21,-14 -6,-5 -10,-12 -12,-19 -3,-8 -4,-15 -4,-24 0,-8 1,-15 4,-22 2,-7 6,-13 11,-19 6,-7 13,-12 21,-15 8,-3 17,-5 27,-5 10,0 19,2 27,4 8,3 15,8 21,14 5,5 9,12 12,19 2,8 4,16 4,24 0,15 -5,29 -16,41 -5,7 -12,12 -21,15 -8,3 -17,5 -27,5zm183 4c-10,0 -19,-1 -26,-4 -9,-3 -16,-7 -21,-13 -6,-6 -10,-13 -12,-20 -3,-7 -4,-15 -4,-24 0,-15 5,-29 15,-41 6,-6 13,-11 21,-15 8,-3 17,-4 27,-4 10,0 19,1 27,4 8,3 15,7 21,13 5,6 9,12 12,20 2,7 4,15 4,23 0,16 -6,30 -16,42 -5,6 -13,11 -21,14 -8,3 -17,5 -27,5zm39 466l-89 0 0 -409 102 0 0 409 -13 0zm134 8c-21,0 -37,-7 -48,-20 -5,-6 -9,-14 -12,-22 -2,-8 -4,-17 -4,-26 0,-9 2,-17 4,-24 3,-8 6,-15 11,-22 6,-7 13,-13 21,-17 8,-3 18,-5 28,-5 21,0 37,7 48,20 5,6 9,13 12,22 2,8 3,16 3,26 0,8 -1,16 -3,24 -3,7 -7,14 -12,21 -5,8 -12,13 -21,17 -8,4 -17,6 -27,6zm325 -424c36,0 69,9 98,27 15,9 28,20 39,33 12,12 21,26 30,42 8,16 14,33 18,51 5,18 7,38 7,58 0,20 -2,39 -7,57 -4,18 -10,35 -18,51 -8,16 -18,30 -30,43 -11,13 -24,23 -38,33 -15,9 -30,16 -46,20 -16,5 -33,7 -51,7 -29,0 -56,-6 -80,-19 -12,-6 -22,-13 -32,-20l-1 -1 0 194 -102 0 0 -570 102 0 0 36c9,-8 19,-15 31,-21 12,-7 25,-12 38,-16 14,-3 28,-5 42,-5zm-10 96c-11,0 -20,1 -29,3 -9,3 -17,7 -25,11 -8,5 -15,11 -21,18 -6,7 -12,14 -16,23 -4,9 -8,18 -10,28 -2,10 -3,20 -3,32 0,22 4,42 13,59 4,9 10,17 16,24 6,7 13,12 21,18 8,5 16,8 25,11 9,2 18,4 29,4 10,0 19,-2 28,-4 9,-3 17,-6 25,-11 8,-5 15,-11 21,-18 6,-7 11,-15 16,-24 4,-8 7,-18 10,-27 2,-10 3,-21 3,-32 0,-23 -4,-43 -13,-60 -5,-9 -10,-16 -16,-23 -6,-7 -13,-13 -21,-18 -8,-4 -16,-8 -25,-11 -8,-2 -18,-3 -28,-3zm247 306l0 -552 101 0 0 566 -101 0 0 -14zm-4110 299c14,12 29,31 29,152 0,98 -35,118 17,196 46,71 34,23 75,125 35,90 54,135 76,145 32,14 61,-6 79,56 9,29 -4,39 32,75 24,23 51,34 69,41 24,-7 82,-15 133,4 32,12 82,37 115,37 61,-1 91,-73 129,-60 8,3 5,5 26,19 52,35 134,34 164,209 24,140 -28,75 85,160 49,38 37,39 39,62 10,84 66,53 73,53 31,-3 56,17 66,24 88,63 405,97 514,90 179,-12 292,-232 383,-260 49,-16 24,33 81,50 21,6 83,-21 117,4 7,5 42,87 133,47 5,-3 60,-48 89,-35l65 49c105,45 166,-117 290,-171l99 -47c46,-28 122,-51 79,-159 -44,-113 -36,-214 -21,-264 -35,-53 -6,-91 12,-157l48 -106c23,-82 128,-99 177,-33 32,37 43,37 82,59 1,0 9,6 5,3 26,7 47,11 68,30 81,-81 102,-1 174,-81 65,-71 34,-121 40,-196 6,-73 -32,-81 -59,-121l-429 0c-35,94 -104,192 -200,297 -90,100 -148,240 -220,277l-48 -53c31,-24 71,-39 78,-83 152,-115 261,-222 345,-438l-56 0c-66,192 -265,363 -435,459l-54 -46c184,-104 338,-200 428,-413l-87 0c-122,252 -341,367 -593,489 -229,111 -482,228 -741,164 -29,-7 -159,-51 -199,-79l26 -75c343,155 548,168 887,-40 178,-110 437,-284 554,-459l-88 0c-153,203 -599,502 -828,543 -138,25 -226,-3 -368,-50 -47,-16 -108,-36 -138,-54l23 -61c113,46 240,103 361,100 286,-8 626,-248 822,-430 17,-16 33,-32 47,-48l-78 0c-135,139 -439,342 -602,395 -142,46 -231,31 -385,-20 -63,-21 -121,-44 -144,-60 6,-30 21,-60 43,-82 293,156 494,93 783,-83 70,-43 139,-92 198,-150l-100 0c-139,115 -360,228 -506,249 -109,16 -245,-1 -344,-53 33,-41 46,-44 77,-95 72,22 138,58 238,52 133,-9 243,-79 352,-153l-774 0c21,4 23,19 105,66l-76 87c-68,-45 -122,-92 -174,-153l-73 0c109,147 146,131 215,192l-48 81c-85,-33 -227,-210 -271,-273l-70 0c106,153 167,222 310,326l-34 67c-102,-76 -139,-84 -242,-212l-131 -181 -59 0c133,209 218,309 405,441l-32 62c-186,-162 -290,-198 -439,-503l-73 0c97,186 256,386 430,508 21,14 43,29 57,42l-35 63c-65,-54 -109,-69 -206,-163 -117,-111 -244,-306 -320,-450l-52 0c87,180 213,362 337,484l216 175 -25 48c-221,-102 -506,-482 -600,-707l-59 0c110,254 353,570 580,716 21,13 40,26 55,37 -11,20 -21,42 -35,60 -76,-58 -215,-101 -263,-148 -79,-76 -136,-242 -197,-344 -79,-133 -109,-154 -180,-321l-444 0zm1334 -1069c144,-133 386,-249 573,-234 139,10 418,234 418,234l-111 0c-13,-10 -26,-20 -39,-29 -94,-65 -181,-148 -289,-153 -145,-6 -336,81 -465,182l-87 0zm791 0c-12,-3 -15,-9 -42,-28 -132,-91 -308,-67 -451,-4 -22,10 -44,21 -64,32l557 0zm-1345 -233l0 0 30 20c67,-75 68,-161 307,-312 254,-161 637,-304 945,-254 92,15 97,7 194,59 25,13 49,28 66,42l16 -40c-55,-48 -192,-112 -267,-122 -226,-30 -306,-25 -525,35 -274,74 -636,316 -800,549l34 23zm75 50l38 25c110,-150 347,-320 517,-403 157,-77 391,-146 556,-120 113,18 212,87 315,137l24 -90c-120,-58 -93,-78 -243,-95 -310,-35 -631,79 -894,240 -132,80 -231,178 -313,306zm-150 -178c52,29 270,-222 345,-271 272,-175 801,-386 1132,-251l177 98 18 -62c-40,-37 -150,-82 -188,-95 -181,-59 -500,-19 -676,39 -90,30 -163,71 -249,110 -125,55 -245,120 -351,200 -101,78 -142,118 -208,232zm-24 -81l62 -87c128,-168 268,-216 503,-323 310,-140 641,-209 947,-138 66,15 137,62 200,94l16 -50 -124 -82c-199,-151 -218,-129 -434,-58 -181,60 -437,15 -648,177 -90,68 -176,115 -257,159 -66,36 -426,207 -265,308zm582 2278c103,56 382,124 511,125 271,2 633,-188 861,-331l-29 -33c-280,167 -623,368 -952,321 -173,-25 -245,-77 -375,-126l-16 44zm1268 -336c-231,132 -588,310 -856,295 -148,-8 -202,-41 -322,-90l-17 51c190,89 356,125 568,85 258,-48 447,-152 672,-285l-45 -56zm126 162c-137,94 -315,219 -508,291 -287,108 -395,88 -640,28 -122,-29 -146,-45 -265,-94l-28 72c58,50 244,128 324,133 98,5 244,-14 358,-16 298,-7 379,-50 623,-228 61,-44 107,-102 173,-140l-37 -46z"/>
 </g>
</svg>
